<svg width="2000" height="2000" viewBox="0 0 2000 2000" fill="none" xmlns="http://www.w3.org/2000/svg">
<g clip-path="url(#clip0_992_4530)">
<rect width="2000" height="2000" fill="white"/>
<line x1="2105" y1="0.5" x2="-105" y2="0.499893" stroke="#B6DCDA"/>
<line x1="2105" y1="100.5" x2="-105" y2="100.5" stroke="#B6DCDA"/>
<line x1="2105" y1="200.5" x2="-105" y2="200.5" stroke="#B6DCDA"/>
<line x1="2105" y1="300.5" x2="-105" y2="300.5" stroke="#B6DCDA"/>
<line x1="2105" y1="400.5" x2="-105" y2="400.5" stroke="#B6DCDA"/>
<line x1="2105" y1="500.5" x2="-105" y2="500.5" stroke="#B6DCDA"/>
<line x1="2105" y1="600.5" x2="-105" y2="600.5" stroke="#B6DCDA"/>
<line x1="2105" y1="700.5" x2="-105" y2="700.5" stroke="#B6DCDA"/>
<line x1="2105" y1="800.5" x2="-105" y2="800.5" stroke="#B6DCDA"/>
<line x1="2105" y1="900.5" x2="-105" y2="900.5" stroke="#B6DCDA"/>
<line x1="2105" y1="1000.5" x2="-105" y2="1000.5" stroke="#B6DCDA"/>
<line x1="2105" y1="1100.5" x2="-105" y2="1100.5" stroke="#B6DCDA"/>
<line x1="2105" y1="1200.5" x2="-105" y2="1200.5" stroke="#B6DCDA"/>
<line x1="2105" y1="1300.5" x2="-105" y2="1300.5" stroke="#B6DCDA"/>
<line x1="2105" y1="1400.5" x2="-105" y2="1400.5" stroke="#B6DCDA"/>
<line x1="2105" y1="1500.5" x2="-105" y2="1500.5" stroke="#B6DCDA"/>
<line x1="2105" y1="1600.5" x2="-105" y2="1600.5" stroke="#B6DCDA"/>
<line x1="2105" y1="1700.5" x2="-105" y2="1700.5" stroke="#B6DCDA"/>
<line x1="2105" y1="1800.5" x2="-105" y2="1800.5" stroke="#B6DCDA"/>
<line x1="2105" y1="1900.5" x2="-105" y2="1900.5" stroke="#B6DCDA"/>
<line x1="0.5" y1="5.03064e-08" x2="0.49992" y2="4203" stroke="#B6DCDA"/>
<line x1="100.5" y1="5.03064e-08" x2="100.5" y2="4203" stroke="#B6DCDA"/>
<line x1="200.5" y1="5.03064e-08" x2="200.5" y2="4203" stroke="#B6DCDA"/>
<line x1="300.5" y1="5.03064e-08" x2="300.5" y2="4203" stroke="#B6DCDA"/>
<line x1="400.5" y1="5.03064e-08" x2="400.5" y2="4203" stroke="#B6DCDA"/>
<line x1="500.5" y1="7.48651e-08" x2="500.5" y2="4203" stroke="#B6DCDA"/>
<line x1="600.5" y1="7.48651e-08" x2="600.5" y2="4203" stroke="#B6DCDA"/>
<line x1="700.501" y1="7.48651e-08" x2="700.501" y2="4203" stroke="#B6DCDA"/>
<line x1="800.501" y1="7.48651e-08" x2="800.501" y2="4203" stroke="#B6DCDA"/>
<line x1="900.501" y1="7.48651e-08" x2="900.501" y2="4203" stroke="#B6DCDA"/>
<line x1="1000.5" y1="7.48651e-08" x2="1000.5" y2="4203" stroke="#B6DCDA"/>
<line x1="1100.5" y1="7.48651e-08" x2="1100.5" y2="4203" stroke="#B6DCDA"/>
<line x1="1200.5" y1="7.48651e-08" x2="1200.5" y2="4203" stroke="#B6DCDA"/>
<line x1="1300.5" y1="7.48651e-08" x2="1300.5" y2="4203" stroke="#B6DCDA"/>
<line x1="1400.5" y1="7.48651e-08" x2="1400.5" y2="4203" stroke="#B6DCDA"/>
<line x1="1500.5" y1="7.48651e-08" x2="1500.5" y2="4203" stroke="#B6DCDA"/>
<line x1="1600.5" y1="7.48651e-08" x2="1600.5" y2="4203" stroke="#B6DCDA"/>
<line x1="1700.5" y1="7.48651e-08" x2="1700.5" y2="4203" stroke="#B6DCDA"/>
<line x1="1800.5" y1="7.48651e-08" x2="1800.5" y2="4203" stroke="#B6DCDA"/>
<line x1="1900.5" y1="7.48651e-08" x2="1900.5" y2="4203" stroke="#B6DCDA"/>
</g>
<defs>
<clipPath id="clip0_992_4530">
<rect width="2000" height="2000" fill="white"/>
</clipPath>
</defs>
</svg>
